<?xml version="1.0" encoding="UTF-8" standalone="no"?>
<svg width="41px" height="27px" viewBox="0 0 41 27" version="1.1" xmlns="http://www.w3.org/2000/svg" xmlns:xlink="http://www.w3.org/1999/xlink" xmlns:sketch="http://www.bohemiancoding.com/sketch/ns">
    <!-- Generator: Sketch 3.5.2 (25235) - http://www.bohemiancoding.com/sketch -->
    <title>ff</title>
    <desc>Created with Sketch.</desc>
    <defs></defs>
    <g id="Page-1" stroke="none" stroke-width="1" fill="none" fill-rule="evenodd" sketch:type="MSPage">
        <g id="Artboard-1" sketch:type="MSArtboardGroup" transform="translate(-1975.000000, -1096.000000)" fill="#000000">
            <g id="Light-Vibrant-Blur" sketch:type="MSLayerGroup" transform="translate(1480.000000, 360.000000)">
                <path d="M515.519095,749.707013 C515.580438,749.935575 515.744239,750.15439 516.010129,750.331124 L534.760676,762.794439 C535.453179,763.25474 536.010656,762.95421 536.010656,762.126391 L536.010656,736.874156 C536.010656,736.045714 535.451021,735.747242 534.760676,736.206108 L516.010129,748.669424 C515.74392,748.84637 515.580365,749.065024 515.519095,749.293237 L515.519095,736.874156 C515.519095,736.045714 514.95946,735.747242 514.269115,736.206108 L495.518568,748.669424 C494.826065,749.129724 494.828224,749.872258 495.518568,750.331124 L514.269115,762.794439 C514.961619,763.25474 515.519095,762.95421 515.519095,762.126391 L515.519095,749.707013 Z" id="ff" sketch:type="MSShapeGroup" transform="translate(515.505328, 749.500527) scale(-1, 1) translate(-515.505328, -749.500527) "></path>
            </g>
        </g>
    </g>
</svg>