<?xml version="1.0" encoding="UTF-8" standalone="no"?>
<svg width="25px" height="25px" viewBox="0 0 25 25" version="1.1" xmlns="http://www.w3.org/2000/svg" xmlns:xlink="http://www.w3.org/1999/xlink" xmlns:sketch="http://www.bohemiancoding.com/sketch/ns">
    <!-- Generator: Sketch 3.5.2 (25235) - http://www.bohemiancoding.com/sketch -->
    <title>Icon - Search</title>
    <desc>Created with Sketch.</desc>
    <defs></defs>
    <g id="Page-1" stroke="none" stroke-width="1" fill="none" fill-rule="evenodd" sketch:type="MSPage">
        <g id="Artboard-1" sketch:type="MSArtboardGroup" transform="translate(-2441.000000, -407.000000)" fill="#585858">
            <g id="Light-Vibrant-Blur" sketch:type="MSLayerGroup" transform="translate(1480.000000, 360.000000)">
                <g id="Finder---Search-Bar" transform="translate(836.000000, 36.000000)" sketch:type="MSShapeGroup">
                    <g id="Group-4" transform="translate(125.000000, 6.000000)">
                        <path d="M16.3287318,22.7429453 C14.6048612,24.1536347 12.4012702,25 10,25 C4.4771525,25 0,20.5228475 0,15 C0,9.4771525 4.4771525,5 10,5 C15.5228475,5 20,9.4771525 20,15 C20,17.4012702 19.1536347,19.6048612 17.7429453,21.3287318 L24.2426407,27.8284271 L22.8284271,29.2426407 L16.3287318,22.7429453 Z M10,23 C14.418278,23 18,19.418278 18,15 C18,10.581722 14.418278,7 10,7 C5.581722,7 2,10.581722 2,15 C2,19.418278 5.581722,23 10,23 Z" id="Icon---Search"></path>
                    </g>
                </g>
            </g>
        </g>
    </g>
</svg>